<svg id="Icons" viewBox="0 0 60 60" xmlns="http://www.w3.org/2000/svg"><path d="m57.02 27.75-1.13-.14c-.17-1.83-.52-3.61-1.05-5.31l.98-.56c.99-.57 1.41-1.78.97-2.84-.43-1.05-1.59-1.62-2.69-1.32l-1.1.31c-.84-1.61-1.85-3.12-3-4.51l.69-.89c.7-.91.62-2.19-.18-3-.81-.8-2.09-.88-3-.18l-.89.69c-1.39-1.15-2.9-2.16-4.51-3l.31-1.1c.3-1.1-.27-2.26-1.32-2.69-1.06-.44-2.27-.02-2.84.97l-.56.98c-1.7-.53-3.48-.88-5.31-1.05l-.14-1.13c-.14-1.13-1.11-1.98-2.25-1.98s-2.11.85-2.25 1.98l-.14 1.13c-1.83.17-3.61.52-5.31 1.05l-.56-.98c-.57-.99-1.78-1.41-2.84-.97-1.05.43-1.62 1.59-1.32 2.69l.31 1.1c-1.61.84-3.12 1.85-4.51 3l-.89-.69c-.91-.7-2.19-.62-3 .18-.8.81-.88 2.09-.18 3l.69.89c-1.15 1.39-2.16 2.9-3 4.51l-1.1-.31c-1.1-.3-2.26.27-2.69 1.32-.44 1.06-.02 2.27.97 2.84l.98.56c-.53 1.7-.88 3.48-1.05 5.31l-1.13.14c-1.13.14-1.98 1.11-1.98 2.25s.85 2.11 1.98 2.25l1.13.14c.17 1.83.52 3.61 1.05 5.31l-.98.56c-.99.57-1.41 1.78-.97 2.84.43 1.05 1.59 1.62 2.69 1.32l1.1-.31c.84 1.61 1.85 3.12 3 4.51l-.69.89c-.7.91-.62 2.19.18 3 .81.8 2.09.88 3 .18l.89-.69c1.39 1.15 2.9 2.16 4.51 3l-.31 1.1c-.3 1.1.27 2.26 1.32 2.69 1.06.44 2.27.02 2.84-.97l.56-.98c1.7.53 3.48.88 5.31 1.05l.14 1.13c.14 1.13 1.11 1.98 2.25 1.98s2.11-.85 2.25-1.98l.14-1.13c1.83-.17 3.61-.52 5.31-1.05l.56.98c.57.99 1.78 1.41 2.84.97 1.05-.43 1.62-1.59 1.32-2.69l-.31-1.1c1.61-.84 3.12-1.85 4.51-3l.89.69c.91.7 2.19.62 3-.18.8-.81.88-2.09.18-3l-.69-.89c1.15-1.39 2.16-2.9 3-4.51l1.1.31c1.1.3 2.26-.27 2.69-1.32.44-1.06.02-2.27-.97-2.84l-.98-.56c.53-1.7.88-3.48 1.05-5.31l1.13-.14c1.13-.14 1.98-1.11 1.98-2.25s-.85-2.11-1.98-2.25zm-25.02-17.65c7.32.73 13.47 5.39 16.31 11.85l-7.49 2.43c-4.35 1.42-8.82-1.83-8.82-6.41zm-2 15.9c2.21 0 4 1.79 4 4s-1.79 4-4 4-4-1.79-4-4 1.79-4 4-4zm-2-15.9v7.87c0 4.58-4.47 7.83-8.82 6.41l-7.49-2.43c2.84-6.46 8.99-11.12 16.31-11.85zm-11.31 34.82c-4.11-3.65-6.69-8.98-6.69-14.92 0-1.46.16-2.88.46-4.25l7.48 2.43c4.35 1.42 6.06 6.67 3.37 10.37zm13.31 5.08c-3.67 0-7.11-.99-10.07-2.73l4.62-6.36c2.69-3.7 8.21-3.7 10.9 0l4.62 6.36c-2.96 1.74-6.4 2.73-10.07 2.73zm13.31-5.08-4.62-6.37c-2.69-3.7-.98-8.95 3.37-10.37l7.48-2.43c.3 1.37.46 2.79.46 4.25 0 5.94-2.58 11.27-6.69 14.92z" fill="#f4a61c"/><path d="m30 35c-2.757 0-5-2.243-5-5s2.243-5 5-5 5 2.243 5 5-2.243 5-5 5zm0-8c-1.654 0-3 1.346-3 3s1.346 3 3 3 3-1.346 3-3-1.346-3-3-3z" fill="#e29314"/></svg>